<svg xmlns="http://www.w3.org/2000/svg" viewBox="0 0 1280 720" data-pptx-page-role="content">
  <g id="background">
    <rect width="1280" height="720" fill="#FFFFFF"/>
  </g>

  <g id="header">
    <text x="80" y="70" font-family="'Microsoft YaHei', Arial, sans-serif" font-size="36" font-weight="bold" fill="#0F172A">项目背景</text>
    <rect x="80" y="88" width="60" height="4" fill="#2563EB"/>
  </g>

  <g id="card-env">
    <text x="80" y="150" font-family="'Microsoft YaHei', Arial, sans-serif" font-size="24" font-weight="bold" fill="#2563EB">开发工具与环境</text>
    <g transform="translate(80, 175)">
      <rect x="0" y="0" width="540" height="44" fill="#F1F5F9" rx="0"/>
      <text x="16" y="28" font-family="'Microsoft YaHei', Arial, sans-serif" font-size="18" fill="#0F172A">Unity 2022.3.62f3c1 (LTS)</text>
    </g>
    <g transform="translate(80, 229)">
      <rect x="0" y="0" width="540" height="44" fill="#F1F5F9" rx="0"/>
      <text x="16" y="28" font-family="'Microsoft YaHei', Arial, sans-serif" font-size="18" fill="#0F172A">Pico 4 Ultra Enterprise (Android)</text>
    </g>
    <g transform="translate(80, 283)">
      <rect x="0" y="0" width="540" height="44" fill="#F1F5F9" rx="0"/>
      <text x="16" y="28" font-family="'Microsoft YaHei', Arial, sans-serif" font-size="18" fill="#0F172A">Pico Integration SDK 3.4.0</text>
    </g>
    <g transform="translate(80, 337)">
      <rect x="0" y="0" width="540" height="44" fill="#F1F5F9" rx="0"/>
      <text x="16" y="28" font-family="'Microsoft YaHei', Arial, sans-serif" font-size="18" fill="#0F172A">Go 语言后端 + HTTP / WebSocket / UDP</text>
    </g>
  </g>

  <g id="card-audience">
    <text x="660" y="150" font-family="'Microsoft YaHei', Arial, sans-serif" font-size="24" font-weight="bold" fill="#0D9488">游戏受众</text>
    <g transform="translate(660, 175)">
      <rect x="0" y="0" width="540" height="44" fill="#F1F5F9" rx="0"/>
      <text x="16" y="28" font-family="'Microsoft YaHei', Arial, sans-serif" font-size="18" fill="#0F172A">MR 混合现实体验爱好者</text>
    </g>
    <g transform="translate(660, 229)">
      <rect x="0" y="0" width="540" height="44" fill="#F1F5F9" rx="0"/>
      <text x="16" y="28" font-family="'Microsoft YaHei', Arial, sans-serif" font-size="18" fill="#0F172A">Pico VR 头显用户</text>
    </g>
    <g transform="translate(660, 283)">
      <rect x="0" y="0" width="540" height="44" fill="#F1F5F9" rx="0"/>
      <text x="16" y="28" font-family="'Microsoft YaHei', Arial, sans-serif" font-size="18" fill="#0F172A">双人联机对战玩家</text>
    </g>
    <g transform="translate(660, 337)">
      <rect x="0" y="0" width="540" height="44" fill="#F1F5F9" rx="0"/>
      <text x="16" y="28" font-family="'Microsoft YaHei', Arial, sans-serif" font-size="18" fill="#0F172A">空间计算 / 真实环境交互技术用户</text>
    </g>
  </g>

  <g id="page-number">
    <text x="1220" y="695" font-family="'Microsoft YaHei', Arial, sans-serif" font-size="14" fill="#94A3B8" text-anchor="end">04</text>
  </g>
</svg>
